<svg width="1424" height="635" viewBox="0 0 1424 635" fill="none" xmlns="http://www.w3.org/2000/svg">
  <circle cx="175.5" cy="81.5" r="1.5" fill="#f3e3ae" />
  <circle cx="445.5" cy="327.5" r="1.5" fill="#f3e3ae" />
  <circle cx="497.5" cy="13.5" r="1.5" fill="#f3e3ae" />
  <circle cx="945.5" cy="102.5" r="1.5" fill="#f3e3ae" />
  <circle cx="1105.5" cy="94.5" r="1.5" fill="#f3e3ae" />
  <circle cx="1193.5" cy="112.5" r="1.5" fill="#f3e3ae" />
  <circle cx="1061.5" cy="338.5" r="1.5" fill="#f3e3ae" />
  <circle cx="1217.5" cy="344.5" r="1.5" fill="#f3e3ae" />
  <circle cx="1225.5" cy="354.5" r="1.5" fill="#f3e3ae" />
  <circle cx="1335.5" cy="591.5" r="1.5" fill="#f3e3ae" />
  <circle cx="1384.5" cy="464.5" r="1.5" fill="#f3e3ae" />
  <circle cx="1390.5" cy="44.5" r="1.5" fill="#f3e3ae" />
  <circle cx="1422.5" cy="619.5" r="1.5" fill="#f3e3ae" />
  <circle cx="1058.5" cy="314.5" r="1.5" fill="#f3e3ae" />
  <circle cx="1128" cy="221" r="1" fill="#f3e3ae" />
  <circle cx="1241" cy="172" r="1" fill="#f3e3ae" />
  <circle cx="1327" cy="63" r="1" fill="#f3e3ae" />
  <circle cx="1378" cy="110" r="1" fill="#f3e3ae" />
  <circle cx="1165" cy="100" r="1" fill="#f3e3ae" />
  <circle cx="1266" cy="124" r="1" fill="#f3e3ae" />
  <circle cx="1317" cy="161" r="1" fill="#f3e3ae" />
  <circle cx="1273" cy="222" r="1" fill="#f3e3ae" />
  <circle cx="1219" cy="263" r="1" fill="#f3e3ae" />
  <circle cx="1258" cy="279" r="1" fill="#f3e3ae" />
  <circle cx="1352" cy="287" r="1" fill="#f3e3ae" />
  <circle cx="1165" cy="306" r="1" fill="#f3e3ae" />
  <circle cx="1217" cy="367" r="1" fill="#f3e3ae" />
  <circle cx="1288" cy="411" r="1" fill="#f3e3ae" />
  <circle cx="1387" cy="413" r="1" fill="#f3e3ae" />
  <circle cx="1379" cy="493" r="1" fill="#f3e3ae" />
  <circle cx="1306" cy="467" r="1" fill="#f3e3ae" />
  <circle cx="1199" cy="454" r="1" fill="#f3e3ae" />
  <circle cx="1156" cy="539" r="1" fill="#f3e3ae" />
  <circle cx="1189" cy="589" r="1" fill="#f3e3ae" />
  <circle cx="1242" cy="546" r="1" fill="#f3e3ae" />
  <circle cx="1288" cy="568" r="1" fill="#f3e3ae" />
  <circle cx="1305" cy="537" r="1" fill="#f3e3ae" />
  <circle cx="1244" cy="612" r="1" fill="#f3e3ae" />
  <circle cx="1015" cy="469" r="1" fill="#f3e3ae" />
  <circle cx="900" cy="588" r="1" fill="#f3e3ae" />
  <circle cx="801" cy="555" r="1" fill="#f3e3ae" />
  <circle cx="756" cy="619" r="1" fill="#f3e3ae" />
  <circle cx="633" cy="565" r="1" fill="#f3e3ae" />
  <circle cx="617" cy="582" r="1" fill="#f3e3ae" />
  <circle cx="580" cy="593" r="1" fill="#f3e3ae" />
  <circle cx="264" cy="597" r="1" fill="#f3e3ae" />
  <circle cx="263" cy="450" r="1" fill="#f3e3ae" />
  <circle cx="234" cy="430" r="1" fill="#f3e3ae" />
  <circle cx="204" cy="375" r="1" fill="#f3e3ae" />
  <circle cx="69" cy="520" r="1" fill="#f3e3ae" />
  <circle cx="27" cy="357" r="1" fill="#f3e3ae" />
  <circle cx="74" cy="260" r="1" fill="#f3e3ae" />
  <circle cx="128" cy="228" r="1" fill="#f3e3ae" />
  <circle cx="174" cy="155" r="1" fill="#f3e3ae" />
  <circle cx="230" cy="210" r="1" fill="#f3e3ae" />
  <circle cx="62" cy="80" r="1" fill="#f3e3ae" />
  <circle cx="443" cy="115" r="1" fill="#f3e3ae" />
  <circle cx="458" cy="84" r="1" fill="#f3e3ae" />
  <circle cx="448" cy="245" r="1" fill="#f3e3ae" />
  <circle cx="460" cy="311" r="1" fill="#f3e3ae" />
  <circle cx="1" cy="634" r="1" fill="#f3e3ae" />
  <circle cx="1085" cy="333" r="1" fill="#f3e3ae" />
  <circle cx="1205" cy="280" r="1" fill="#f3e3ae" />
  <circle cx="1010.5" cy="303.5" r="1.5" fill="#f3e3ae" />
  <circle cx="1202.5" cy="42.5" r="1.5" fill="#f3e3ae" />
  <circle cx="359.5" cy="599.5" r="1.5" fill="#f3e3ae" />
  <circle cx="301.5" cy="38.5" r="1.5" fill="#f3e3ae" />
  <circle cx="365.5" cy="3.5" r="1.5" fill="#f3e3ae" />
  <circle cx="297" cy="97" r="3" fill="#f3e3ae" />
  <circle cx="1188" cy="311" r="3" fill="#f3e3ae" />
  <circle cx="1219" cy="308" r="3" fill="#f3e3ae" />
  <circle cx="1121" cy="146" r="3" fill="#f3e3ae" />
  <circle cx="368" cy="3" r="3" fill="#f3e3ae" />
  <circle cx="60.5" cy="153.5" r="1.5" fill="#f3e3ae" />
</svg>